<svg xmlns="http://www.w3.org/2000/svg" width="429" height="73.59170035753188"
     viewBox="0 0 370.18518518518516 63.502464393812566" class="looka-1j8o68f">
    <g id="SvgjsG1194"
       transform="matrix(0.7211261937828582,0,0,0.7211261937828582,-5.374799087651622,-4.579788090033883)"
       fill="#3490de">
        <path xmlns="http://www.w3.org/2000/svg"
              d="M95.5036087,66.6728058c-2.3516235-4.0634766-5.5314941-7.6530762-9.2313843-10.5344238  c-2.8023682-2.182373-7.9872437-6.2285156-11.8977661-5.364502c-3.3833008,0.7478027-6.6517334,5.3516846-8.5672607,7.947998  c-0.4886475,0.6622314-0.9570312,1.3544922-1.3908081,2.0703125c-0.3892822,0.1818848-0.6702843,0.5704346-0.5858727,1.0270996  c-0.8510742,1.5877686-1.4915161,3.2807617-1.7515259,5.0360107c-5.1051636-2.6420898-9.1625366-6.5311279-12.4622192-11.2733154  c-1.5279541-2.1959229-2.8704834-4.5159912-4.1226807-6.878418c-0.7421265-1.4002686-3.3353882-5.0073242-3.6774902-7.0527344  c0.0906372-0.1055908,0.1645508-0.2355957,0.2072144-0.4018555c0.0213623-0.083252,0.0427246-0.1665039,0.0640869-0.2497559  c0.0718384-0.2797852,0.0068359-0.5968018-0.1585083-0.8408203c1.5484009-1.5085449,3.0015259-3.1142578,4.3284912-4.8282471  c1.5549316-2.0085449,2.7015991-4.1931152,2.1634521-6.3880615c0.6727905-1.6920166,0.7750244-3.4893799-0.1109619-5.3623047  c-1.6587524-3.5065918-5.6240234-6.5537109-8.1969604-9.3926992c-2.0594482-2.2723389-4.1504517-5.5310059-6.979248-6.9459233  c-5.304018-2.652832-14.6161518,1.1962895-19.1709003,4.0554204c-3.3618774,2.1103516-4.8577881,6.7683096-4.1452637,10.753417  c-0.1577759,0.112915-0.2964478,0.2624512-0.371521,0.4919434c-6.555481,20.0386963,3.8886719,40.1851807,19.2271118,52.965332  c14.1448994,11.7857666,37.7717285,26.1218262,55.8499756,14.7507324c0.2203979-0.1385498,0.3609009-0.3408203,0.4309082-0.560791  c0.1558838-0.0415039,0.3099976-0.1137695,0.4507446-0.2624512c1.1936035-1.2612305,2.4488525-2.5847168,3.692749-3.9523926  c0.9436646,0.3793945,1.7497559-0.7402344,1.2792969-1.4351807c2.3213501-2.6546631,4.5055542-5.4765625,6.0238647-8.4351807  C98.0963211,72.3087921,97.2891922,69.758255,95.5036087,66.6728058z M47.889843,56.5913849  c3.668457,5.2969971,8.2375488,9.6700439,14.0765991,12.4520264c0.0194092,0.4069824,0.0569458,0.815918,0.1253052,1.2270508  c0.6795654,4.0878906,3.6679039,6.9949951,6.7030602,9.5441895c-0.0791626-0.0273438-0.1505737-0.0646973-0.243103-0.0737305  c-9.676754-0.9431152-18.3936729-8.3239746-25.0272179-14.9626465  c-5.5406494-5.5450439-10.3759155-12.2293701-12.6582661-19.7768555c0.1934814,0.1281738,0.387146,0.2446289,0.5803833,0.333374  c0.3174438,0.145752,0.6193867,0.2296143,0.9120502,0.2799072c-0.1652832,0.7700195,0.6121216,1.6660156,1.4350586,1.1094971  c2.1340332-1.4429932,4.1871338-3.0155029,6.125-4.7166748c0.3834229,1.5966797,1.6029053,3.2553711,2.2290039,4.5202637  C43.8629265,49.9927521,45.6855583,53.4084015,47.889843,56.5913849z M36.610302,42.2207794  c0.2351074-0.5579834,0.4281616-1.1373291,0.5767212-1.7015381c0.9142456-0.3330078,1.5679321-1.1467285,2.4822998-1.9752197  c1.6295166-1.4764404,3.9957275-3.3104248,5.9318848-5.4118652C43.7932854,36.2848663,39.7840691,39.770462,36.610302,42.2207794z   M24.3661594,9.4220743c3.34375-0.9313965,6.6879883-1.5438237,9.5451679,0.9204102  c1.9907227,1.7167969,3.6906738,4.0482178,5.4490967,5.9884024c1.6661987,1.838501,3.9905396,3.7303467,5.2897949,5.8366699  c0.9733887,1.5780029,1.4304199,3.0482178,1.447998,4.4348145c-0.4485474,0.322876-0.7012939,1.001709-0.2426147,1.5559082  c0.0202637,0.0245361,0.03302,0.0510254,0.0523682,0.0758057c-0.3833618,1.53479-1.3265991,2.9686279-2.741272,4.3338623  c-1.541687,1.487915-3.7092285,4.3671875-5.644043,5.2410889c-0.06604,0.0299072-0.1309814,0.0477295-0.1964722,0.0715332  c-0.3701172-0.3945312-1.1085205-0.3635254-1.5109253,0.0761719c-1.4412231-0.3592529-2.7613525-1.8217773-4.0322895-2.9580078  c-6.8798828-6.1503906-12.4213257-13.5141602-16.6776123-21.675415  C17.8395481,11.3474894,21.578867,10.1984415,24.3661594,9.4220743z M13.5508518,14.6657267  c3.6644897,6.9577627,8.2467651,13.3588858,13.8259277,18.9267578c1.7272339,1.723877,5.0495625,5.8688965,7.7366962,6.859375  c-0.5021973,1.4946289-1.4362793,3.1018066-2.828186,2.9885254c-0.4933491-0.0400391-1.6075459-1.3608398-2.3168964-2.1816406  c-0.0583496-0.3254395-0.1237183-0.6489258-0.1719971-0.9771729c-0.1098633-0.7471924-0.8192139-0.855957-1.3495483-0.5706787  c-1.5349121-1.4914551-3.0697632-2.9827881-4.6046753-4.4741211c-3.7540894-3.6477051-11.2282104-8.7579346-12.225708-14.1318359  C11.1141453,18.39888,11.9862156,16.3061066,13.5508518,14.6657267z M28.8724461,73.0622101  C15.1524754,61.1699982,5.8559666,43.1291046,10.8166599,24.9442902c0.151123,0.2756348,0.3153687,0.5427246,0.496521,0.7972412  c2.5139771,3.5321045,6.5979614,6.5206299,9.7075806,9.5421143c1.8762817,1.822998,3.7525024,3.6461182,5.6287842,5.4692383  c0.4581909,0.4451904,0.9649658,1.0300293,1.4983521,1.635498c1.9116821,9.6795654,8.08008,18.2011719,15.1034565,24.9199219  c6.9235229,6.623291,15.4691162,13.4746094,25.3003502,14.4326172c0.9003296,0.0878906,1.149292-0.8687744,0.7836304-1.4914551  c4.0280151,3.3317871,8.3231812,6.3310547,12.7510376,9.1060791C64.7218094,98.7553253,42.0119133,84.4511261,28.8724461,73.0622101  z M83.9910355,88.020462c-0.039856,0.0422363-0.052002,0.0887451-0.0827637,0.1325684  c-5.8607788-3.5917969-12.1688232-7.5483398-16.8240967-12.6103516c-3.1657677-3.4423828-3.7299767-7.5993652-2.0472412-11.6379395  c5.5801392,8.6616211,13.0928955,15.6612549,22.1416626,20.5922852  C86.1398392,85.6894073,85.0827713,86.8668976,83.9910355,88.020462z M92.3039627,78.0946808  c-1.2076416,1.6676025-2.4752808,3.2770996-3.7884521,4.8477783c-9.2689209-4.9840088-16.8764648-12.1358643-22.4179077-21.1165771  c1.4724731-2.5166016,4.0911865-6.4453125,6.5908813-7.6793213c2.5945435-1.2808838,6.5281372-0.229126,8.8463745,1.1558838  c1.6539917,0.9882812,3.2258301,2.1125488,4.6931152,3.3626709c2.6132202,2.2261963,4.9100952,4.838501,6.7629395,7.729126  C95.7387772,70.6811066,95.0604324,74.2880402,92.3039627,78.0946808z"></path>
        <path xmlns="http://www.w3.org/2000/svg"
              d="M84.1017532,74.0902863c-3.489502-2.4969482-6.1984253-5.7739258-8.0723267-9.6270752  c-0.5628052-1.1573486-2.288147-0.1444092-1.7269287,1.0093994c2.0297241,4.1737061,5.0203247,7.6473389,8.7897949,10.3444824  C84.1408157,76.567337,85.1405716,74.8334503,84.1017532,74.0902863z"></path>
        <path xmlns="http://www.w3.org/2000/svg"
              d="M86.1977615,72.36763c-2.8035278-3.1899414-5.208252-6.645874-7.2461548-10.3704834  c-0.617981-1.1295166-2.3456421-0.1213379-1.7269287,1.0093994c2.1187134,3.8723145,4.6456299,7.4604492,7.5588989,10.7753906  C85.6348953,74.7505646,87.0448074,73.3314972,86.1977615,72.36763z"></path>
        <path xmlns="http://www.w3.org/2000/svg"
              d="M89.2434769,70.3269806c-2.6517334-3.0129395-4.947998-6.2647705-6.9180908-9.760376  c-0.631958-1.1213379-2.3603516-0.114502-1.7269897,1.0093994c2.0524902,3.6419678,4.4694214,7.02771,7.230896,10.1651611  C88.681282,72.7091827,90.0912552,71.2902374,89.2434769,70.3269806z"></path>
        <path xmlns="http://www.w3.org/2000/svg"
              d="M33.0486565,21.0231476c-1.2869282,0-1.2890644,2,0,2C34.3355827,23.0231476,34.337719,21.0231476,33.0486565,21.0231476z"></path>
        <path xmlns="http://www.w3.org/2000/svg"
              d="M30.5486546,18.0231476c-1.2869263,0-1.2890625,2,0,2C31.8355808,20.0231476,31.8377171,18.0231476,30.5486546,18.0231476z"></path>
        <path xmlns="http://www.w3.org/2000/svg"
              d="M36.0486565,24.0231476c-1.2869263,0-1.2890625,2,0,2C37.3355827,26.0231476,37.337719,24.0231476,36.0486565,24.0231476z"></path>
        <path xmlns="http://www.w3.org/2000/svg"
              d="M31.0486546,24.5231476c-1.2869263,0-1.2890625,2,0,2C32.3355827,26.5231476,32.337719,24.5231476,31.0486546,24.5231476z"></path>
        <path xmlns="http://www.w3.org/2000/svg"
              d="M28.0486546,20.0231476c-1.2869263,0-1.2890625,2,0,2C29.3355808,22.0231476,29.3377171,20.0231476,28.0486546,20.0231476z"></path>
        <path xmlns="http://www.w3.org/2000/svg"
              d="M34.5486565,17.0231476c-1.2869263,0-1.2890625,2,0,2C35.8355827,19.0231476,35.837719,17.0231476,34.5486565,17.0231476z"></path>
        <path xmlns="http://www.w3.org/2000/svg"
              d="M38.0486565,20.5231476c-1.2869263,0-1.2890625,2,0,2C39.3355827,22.5231476,39.337719,20.5231476,38.0486565,20.5231476z"></path>
    </g>
    <g id="SvgjsG1195"
       transform="matrix(1.2899637363089878,0,0,1.2899637363089878,81.90408783249187,0.1003675577312606)"
       fill="#3490de">
        <path d="M17.24 10 c3.48 0 6.28 2.8 6.28 6.28 l0 4.16 c0 3.48 -2.8 6.28 -6.28 6.28 l-11.64 0 c-0.56 0 -1 -0.28 -1.12 -0.64 l0 13.48 c0 0.24 -0.2 0.44 -0.44 0.44 l-1.64 0 l0 -28.84 c0 -0.64 0.52 -1.16 1.16 -1.16 l13.68 0 z M21.44 20.8 l0 -4.88 c0 -2.32 -1.88 -4.2 -4.2 -4.2 l-12.32 0 c-0.24 0 -0.44 0.2 -0.44 0.44 l0 12.12 c0 0.4 0.32 0.72 0.72 0.72 l12.04 0 c2.32 0 4.2 -1.88 4.2 -4.2 z M32.08 40 c-2.76 0 -4.96 -1.8 -4.96 -4.84 l0 -10.36 c0 -3 2.12 -4.8 4.84 -4.8 l6.32 0 c2.72 0 4.84 1.8 4.84 4.8 l0 5.44 c0 0.28 -0.2 0.48 -0.44 0.48 l-12.84 0 c-0.36 0 -0.68 -0.2 -0.88 -0.48 l-0.04 0 l0 4.88 c0 1.76 1.4 3.16 3.16 3.16 l10.28 0 c0.24 0 0.44 0.2 0.44 0.44 l0 1.28 l-10.72 0 z M38.28 21.64 l-6.32 0 c-1.72 0 -3.04 1.44 -3.04 3.2 l0 3.76 c0 0.24 0.16 0.4 0.44 0.44 l11.96 0 l0 -4.2 c0 -1.76 -1.32 -3.2 -3.04 -3.2 z M47.99999999999999 20 l1.8 0 l0 1.32 s0.8 -1.32 3.52 -1.32 l4.56 0 l0 1.24 c0 0.24 -0.2 0.4 -0.44 0.4 l-4.92 0 c-2.8 0 -2.72 2.88 -2.72 2.88 l0 15.48 l-1.8 0 l0 -20 z M74.96 33.04 c0 -0.24 -0.2 -0.52 -0.4 -0.56 l-12.48 -4.48 c-0.6 -0.2 -1.08 -0.88 -1.08 -1.52 l0 -2 c0 -2.76 2.2 -4.48 4.96 -4.48 l9.2 0 l0 1.2 c0 0.24 -0.2 0.44 -0.44 0.44 l-8.76 0 c-1.76 0 -3.16 1.12 -3.16 2.88 l0 1.48 c0 0.24 0.2 0.48 0.4 0.56 l12.4 4.48 c0.6 0.2 1.08 0.88 1.08 1.52 l0 3.04 c0 2.8 -2.24 4.4 -4.96 4.4 l-10.76 0 l0 -1.24 c0 -0.24 0.2 -0.44 0.44 -0.44 l10.32 0 c1.72 0 3.24 -0.96 3.24 -2.68 l0 -2.6 z M81.47999999999999 39.56 l0 -19.56 l1.36 0 c0.24 0 0.44 0.16 0.44 0.4 l0 19.6 l-1.36 0 c-0.24 0 -0.44 -0.2 -0.44 -0.44 z M81.47999999999999 13 l0 -1.88 l1.4 0 c0.24 0 0.4 0.2 0.4 0.4 l0 1.88 l-1.4 0 c-0.24 0 -0.4 -0.16 -0.4 -0.4 z M98.56 19.96 c2.76 0 4.96 2.28 4.96 5.04 l0 14.56 c0 0.24 -0.2 0.44 -0.44 0.44 l-10.04 0 c-2.76 0 -4.96 -2.24 -4.96 -5 l0 -2.08 c0 -2.8 2.2 -5.04 4.96 -5.04 l8.24 0 c0.24 0 0.4 -0.16 0.44 -0.44 l0 -2.6 c0 -1.76 -1.4 -3.2 -3.16 -3.2 l-8.36 0 c-0.2 0 -0.4 -0.2 -0.4 -0.44 l0 -1.24 l8.76 0 z M93.03999999999999 38.24 l8.68 0 l0 -8.84 c-0.08 0.08 -0.2 0.16 -0.32 0.16 l-8.36 0 c-1.76 0 -3.16 1.44 -3.16 3.2 l0 2.32 c0 1.76 1.4 3.16 3.16 3.16 z M122.44 39.56 l0 -14.72 c0 -1.76 -1.44 -3.2 -3.16 -3.2 l-8.76 0 c-0.24 0 -0.44 0.2 -0.44 0.44 l0 17.48 c0 0.24 -0.2 0.44 -0.44 0.44 l-1.36 0 l0 -18.24 c0 -0.96 0.8 -1.8 1.76 -1.8 l9.24 0 c2.72 0 4.96 2.28 4.96 5.04 l0 15 l-1.4 0 c-0.2 0 -0.4 -0.2 -0.4 -0.44 z M144.88 15.920000000000002 l0 4.8 c0 0.24 0.2 0.52 0.4 0.56 l18 5.96 c0.6 0.2 1.12 0.88 1.12 1.52 l0 4.96 c0 3.48 -2.84 6.28 -6.28 6.28 l-15.68 0 l0 -1.28 c0 -0.24 0.2 -0.44 0.44 -0.44 l15.24 0 c2.32 0 4.2 -1.88 4.2 -4.2 l0 -4.84 c0 -0.24 -0.2 -0.48 -0.44 -0.56 l-18 -5.96 c-0.6 -0.2 -1.08 -0.88 -1.08 -1.52 l0 -4.92 c0 -3.48 2.8 -6.28 6.28 -6.28 l14.44 0 l0 1.28 c0 0.24 -0.2 0.44 -0.44 0.44 l-14 0 c-2.32 0 -4.2 1.88 -4.2 4.2 z M194.48 10.2 c0.04 -0.08 0.24 -0.2 0.32 -0.2 l2.56 0 l0 30 l-1.64 0 c-0.24 0 -0.44 -0.2 -0.44 -0.44 l0 -26.88 s-9.2 16.44 -10.76 19.16 c-0.12 0.2 -0.4 0.36 -0.64 0.36 l-1.72 0 c-0.24 0 -0.56 -0.16 -0.68 -0.36 l-10.72 -19.16 l0 26.88 c0 0.24 -0.2 0.44 -0.44 0.44 l-1.64 0 l0 -30 l2.56 0 c0.08 0 0.28 0.12 0.32 0.2 l11.48 20.2 z M203.96 15.920000000000002 l0 4.8 c0 0.24 0.2 0.52 0.4 0.56 l18 5.96 c0.6 0.2 1.12 0.88 1.12 1.52 l0 4.96 c0 3.48 -2.84 6.28 -6.28 6.28 l-15.68 0 l0 -1.28 c0 -0.24 0.2 -0.44 0.44 -0.44 l15.24 0 c2.32 0 4.2 -1.88 4.2 -4.2 l0 -4.84 c0 -0.24 -0.2 -0.48 -0.44 -0.56 l-18 -5.96 c-0.6 -0.2 -1.08 -0.88 -1.08 -1.52 l0 -4.92 c0 -3.48 2.8 -6.28 6.28 -6.28 l14.44 0 l0 1.28 c0 0.24 -0.2 0.44 -0.44 0.44 l-14 0 c-2.32 0 -4.2 1.88 -4.2 4.2 z"></path>
    </g>
</svg>